<?xml version="1.0" encoding="UTF-8" standalone="no"?>
<!-- Created with Inkscape (http://www.inkscape.org/) -->

<svg
   xmlns:dc="http://purl.org/dc/elements/1.1/"
   xmlns:cc="http://creativecommons.org/ns#"
   xmlns:rdf="http://www.w3.org/1999/02/22-rdf-syntax-ns#"
   xmlns:svg="http://www.w3.org/2000/svg"
   xmlns="http://www.w3.org/2000/svg"
   xmlns:xlink="http://www.w3.org/1999/xlink"
   xmlns:sodipodi="http://sodipodi.sourceforge.net/DTD/sodipodi-0.dtd"
   xmlns:inkscape="http://www.inkscape.org/namespaces/inkscape"
   sodipodi:docname="logo.svg"
   inkscape:version="0.91 r13725"
   version="1.1"
   id="svg4182"
   viewBox="0 0 685.50887 383.34497"
   height="108.18847mm"
   width="193.46584mm">
  <defs
     id="defs4184">
    <linearGradient
       id="linearGradient5352"
       inkscape:collect="always">
      <stop
         id="stop5354"
         offset="0"
         style="stop-color:#1a17c8;stop-opacity:1" />
      <stop
         style="stop-color:#469560;stop-opacity:1"
         offset="0.45946223"
         id="stop5358" />
      <stop
         id="stop5356"
         offset="1"
         style="stop-color:#ffff29;stop-opacity:1" />
    </linearGradient>
    <linearGradient
       inkscape:collect="always"
       xlink:href="#linearGradient5352"
       id="linearGradient5338"
       x1="212.36989"
       y1="481.99725"
       x2="701.09442"
       y2="108.24083"
       gradientUnits="userSpaceOnUse" />
    <linearGradient
       inkscape:collect="always"
       xlink:href="#linearGradient5352"
       id="linearGradient5346"
       x1="204.8298"
       y1="484.01389"
       x2="703.62457"
       y2="117.28445"
       gradientUnits="userSpaceOnUse" />
    <filter
       style="color-interpolation-filters:sRGB"
       inkscape:label="Drop Shadow"
       id="filter5360">
      <feFlood
         flood-opacity="0.498039"
         flood-color="rgb(0,0,0)"
         result="flood"
         id="feFlood5362" />
      <feComposite
         in="flood"
         in2="SourceGraphic"
         operator="in"
         result="composite1"
         id="feComposite5364" />
      <feGaussianBlur
         in="composite1"
         stdDeviation="3"
         result="blur"
         id="feGaussianBlur5366" />
      <feOffset
         dx="6"
         dy="6"
         result="offset"
         id="feOffset5368" />
      <feComposite
         in="SourceGraphic"
         in2="offset"
         operator="over"
         result="composite2"
         id="feComposite5370" />
    </filter>
    <filter
       style="color-interpolation-filters:sRGB"
       inkscape:label="Drop Shadow"
       id="filter5372">
      <feFlood
         flood-opacity="0.498039"
         flood-color="rgb(0,0,0)"
         result="flood"
         id="feFlood5374" />
      <feComposite
         in="flood"
         in2="SourceGraphic"
         operator="in"
         result="composite1"
         id="feComposite5376" />
      <feGaussianBlur
         in="composite1"
         stdDeviation="3"
         result="blur"
         id="feGaussianBlur5378" />
      <feOffset
         dx="6"
         dy="6"
         result="offset"
         id="feOffset5380" />
      <feComposite
         in="SourceGraphic"
         in2="offset"
         operator="over"
         result="composite2"
         id="feComposite5382" />
    </filter>
  </defs>
  <sodipodi:namedview
     inkscape:window-maximized="1"
     inkscape:window-y="0"
     inkscape:window-x="0"
     inkscape:window-height="718"
     inkscape:window-width="1366"
     showgrid="false"
     inkscape:current-layer="layer1"
     inkscape:document-units="px"
     inkscape:cy="22.628216"
     inkscape:cx="70.443842"
     inkscape:zoom="0.35"
     inkscape:pageshadow="2"
     inkscape:pageopacity="0.0"
     borderopacity="1.0"
     bordercolor="#666666"
     pagecolor="#ffffff"
     id="base"
     fit-margin-top="0"
     fit-margin-left="0"
     fit-margin-right="0"
     fit-margin-bottom="0" />
  <metadata
     id="metadata4187">
    <rdf:RDF>
      <cc:Work
         rdf:about="">
        <dc:format>image/svg+xml</dc:format>
        <dc:type
           rdf:resource="http://purl.org/dc/dcmitype/StillImage" />
        <dc:title></dc:title>
      </cc:Work>
    </rdf:RDF>
  </metadata>
  <g
     inkscape:label="Layer 1"
     inkscape:groupmode="layer"
     id="layer1"
     transform="translate(9.1477535,-66.794079)">
    <g
       id="g5348"
       transform="matrix(0.98987921,0.14191249,-0.14191249,0.98987921,-53.914365,-89.079646)">
      <path
         inkscape:connector-curvature="0"
         id="path5328"
         d="m 207.01558,483.388 c 1.57143,-0.38906 50.63354,-10.2537 57.11568,-11.83342 70.35114,-17.1448 122.91139,-47.12728 151.55719,-85.61806 7.43949,-9.99631 10.62533,-14.76003 24.41411,-42.33508 31.81113,-63.61647 43.82328,-85.18761 76.4633,-138.45086 18.93915,-30.90565 19.39699,-31.18905 25.76811,-37.49416 21.3463,-21.12511 66.41596,-38.63749 128.97854,-48.57815 17.13741,-2.72299 47.12997,-8.11443 34.21155,-5.15782 -46.2296,10.58045 -106.72628,34.33477 -122.75602,55.40636 -4.66573,6.13324 -34.68875,55.0699 -48.55567,79.14433 -12.79544,22.21424 -21.93008,39.51385 -43.7507,82.85714 -9.98783,19.83929 -20.09334,38.96429 -22.45668,42.5 -21.69855,32.4625 -59.68603,58.11326 -115.84462,78.22324 -24.36648,8.72546 -59.3561,17.77846 -90.88509,23.51506 -11.65538,2.12066 -60.11115,9.27015 -54.2597,7.82142 z"
         style="opacity:1;fill:url(#linearGradient5338);fill-opacity:1;stroke:#000000;stroke-width:1.42857146;stroke-miterlimit:4;stroke-dasharray:none;stroke-dashoffset:0;stroke-opacity:1"
         sodipodi:nodetypes="sssssssssssssss" />
      <path
         inkscape:connector-curvature="0"
         id="path5330"
         d="m 210.42373,481.651 c 44.41881,-10.37832 68.55899,-26.42166 98.24666,-50.21849 8.46096,-6.78207 23.12281,-21.36463 29.54976,-29.38994 10.35846,-12.93458 17.12564,-24.28172 31.22268,-52.35391 35.41801,-70.52979 44.82825,-87.6309 79.46669,-144.41386 18.47578,-30.28744 21.56084,-34.1685 33.3323,-41.93267 35.14665,-23.18189 109.10871,-40.28399 211.04379,-48.79927 17.34546,-1.44897 21.18688,-1.23177 7.1705,0.40543 -60.22036,7.03412 -108.35222,19.77292 -137.00465,36.26027 -9.85386,5.67017 -15.3549,9.8398 -22.28107,16.88838 -5.97008,6.0756 -7.6716,8.57646 -23.8575,35.06534 -32.38408,52.99783 -39.99064,66.68834 -70.01945,126.02314 -25.81775,51.01405 -30.2458,58.10785 -46.14717,73.92857 -28.95462,28.80777 -71.23053,50.77338 -127.06706,66.0212 -24.13626,6.59113 -48.06145,12.84847 -67.27183,14.47394 -4.05082,0.34276 -4.17368,-0.13801 3.61635,-1.95813 z"
         style="opacity:1;fill:url(#linearGradient5346);fill-opacity:1;stroke:#000000;stroke-width:1.42857146;stroke-miterlimit:4;stroke-dasharray:none;stroke-dashoffset:0;stroke-opacity:1"
         sodipodi:nodetypes="ssssssssssssssss" />
    </g>
    <g
       style="font-style:normal;font-weight:normal;font-size:302.956604px;line-height:125%;font-family:sans-serif;letter-spacing:0px;word-spacing:0px;fill:#323232;fill-opacity:1;stroke:#000000;stroke-width:1px;stroke-linecap:butt;stroke-linejoin:miter;stroke-opacity:1;filter:url(#filter5372)"
       id="text4730"
       transform="matrix(0.35289661,0,0,0.35289661,-7.5784035,50.247698)">
      <path
         d="m 661.79995,898.13479 c -49.12628,37.13032 -103.75766,68.51619 -159.28078,92.45266 -76.98772,33.19005 -155.68991,52.05765 -223.80784,52.05765 -69.81204,0 -124.49579,-24.0501 -160.32678,-67.80511 -17.60056,-21.49292 -30.65218,-47.74039 -38.713426,-78.22739 -6.293583,-23.80185 -9.545408,-50.1878 -9.545408,-78.91279 0,-77.47052 14.848008,-155.72252 42.608304,-230.31523 19.30238,-51.86604 44.84752,-101.9629 75.9847,-148.79774 26.5273,-39.90092 57.11341,-77.43421 91.35592,-111.67672 42.826,-42.826 87.91039,-79.22425 133.5788,-108.32657 82.26502,-52.4236 166.42512,-81.17278 242.69329,-81.17278 34.3205,0 62.641,5.16667 85.48595,15.90794 42.49249,19.97917 66.04102,59.24499 74.0207,120.42253 l -55.16171,46.96199 -45.72284,38.9262 c -2.74489,-36.14102 -9.17416,-65.83437 -19.59691,-89.33762 -20.63728,-46.53697 -56.93094,-68.80572 -111.28034,-68.80572 -67.58852,0 -135.02406,31.66649 -194.82492,84.44308 -53.52187,47.23513 -100.92814,111.38006 -136.85502,184.86667 -12.887,26.35972 -24.297,53.9214 -33.98242,82.33575 -9.14535,26.8299 -16.7531,54.42002 -22.61484,82.47633 -9.01262,43.13744 -13.89768,87.37691 -13.89768,131.64962 0,65.71686 17.55026,119.14855 48.91059,155.84245 30.44421,35.62196 73.9034,55.46977 126.95571,55.46977 53.13699,0 105.42862,-10.9895 162.99397,-35.55734 45.81909,-19.55476 94.97926,-47.71186 150.56611,-85.77677 z"
         style="font-style:italic;font-variant:normal;font-weight:500;font-stretch:normal;font-size:1363.3046875px;font-family:'URW Chancery L';-inkscape-font-specification:'URW Chancery L Medium Italic';fill:#323232;fill-opacity:1;stroke:#000000;stroke-width:5.50631905;stroke-miterlimit:4;stroke-dasharray:none;stroke-opacity:1"
         id="path4735"
         inkscape:connector-curvature="0"
         sodipodi:nodetypes="cssssssssssscccsssssssssscc" />
    </g>
    <text
       xml:space="preserve"
       style="font-style:normal;font-weight:normal;font-size:55.60735703px;line-height:125%;font-family:sans-serif;letter-spacing:0px;word-spacing:0px;fill:#000000;fill-opacity:1;stroke:none;stroke-width:1px;stroke-linecap:butt;stroke-linejoin:miter;stroke-opacity:1;filter:url(#filter5360)"
       x="189.60544"
       y="321.54456"
       id="text5294"
       sodipodi:linespacing="125%"
       transform="scale(0.94565618,1.0574668)"><tspan
         sodipodi:role="line"
         id="tspan5296"
         x="189.60544"
         y="321.54456"
         style="font-size:250.23310852px;fill:#323232;fill-opacity:1">arst</tspan></text>
  </g>
</svg>
